<svg width="840" height="700" viewBox="0 0 840 700" fill="none" xmlns="http://www.w3.org/2000/svg">
  <defs>
    <linearGradient id="bg" x1="0" y1="0" x2="840" y2="700" gradientUnits="userSpaceOnUse">
      <stop stop-color="#121A29"/>
      <stop offset="1" stop-color="#0A0D14"/>
    </linearGradient>
    <linearGradient id="accent" x1="154" y1="108" x2="642" y2="578" gradientUnits="userSpaceOnUse">
      <stop stop-color="#F5F7FB"/>
      <stop offset="1" stop-color="#6CE2FF"/>
    </linearGradient>
  </defs>
  <rect x="1" y="1" width="838" height="698" rx="40" fill="url(#bg)" stroke="#243047"/>
  <circle cx="652" cy="144" r="124" fill="#6CE2FF" fill-opacity="0.10"/>
  <circle cx="682" cy="112" r="74" fill="#6CE2FF" fill-opacity="0.08"/>
  <path d="M122 572C188 470 282 418 404 416C526 414 614 362 668 260" stroke="#6CE2FF" stroke-width="6" stroke-linecap="round"/>
  <circle cx="122" cy="572" r="10" fill="#6CE2FF"/>
  <circle cx="404" cy="416" r="10" fill="#6CE2FF"/>
  <circle cx="668" cy="260" r="10" fill="#6CE2FF"/>
  <rect x="92" y="88" width="234" height="140" rx="24" fill="#121827" stroke="#243047"/>
  <text x="120" y="132" fill="#6CE2FF" font-size="18" font-family="Inter, Arial, sans-serif" letter-spacing="2">GRIND</text>
  <text x="120" y="175" fill="#F5F7FB" font-size="36" font-family="Inter, Arial, sans-serif" font-weight="700">Discipline.</text>
  <text x="120" y="212" fill="#A8B3C7" font-size="24" font-family="Inter, Arial, sans-serif">Culture. Impact.</text>
  <circle cx="592" cy="476" r="122" stroke="#6CE2FF" stroke-width="12"/>
  <path d="M530 424H648V446H554V470H626V492H554V528H652V550H530V424Z" fill="url(#accent)"/>
  <path d="M592 380L660 448H624L592 416L560 448H524L592 380Z" fill="url(#accent)"/>
  <rect x="92" y="274" width="260" height="24" rx="12" fill="#1A2335"/>
  <rect x="92" y="318" width="210" height="24" rx="12" fill="#1A2335"/>
  <rect x="92" y="362" width="292" height="24" rx="12" fill="#1A2335"/>
</svg>
